# xmcd
#
# Track frame offsets: 
#        150
#        18042
#        35959
#        56629
#        75979
#        93703
#        112837
#        134134
#        152025
#        170573
#        188694
#        209410
#        229426
#        247479
#        269191
#        286726
#        307513
#        329425
#
# Disc length: 4660 seconds
#
# Revision: 1
# Processed by: cddbd v1.5.2PL0 Copyright (c) Steve Scherf et al.
# Submitted via: ExactAudioCopy v1.0b3
#
DISCID=08123212
DTITLE=松田聖子 - Seiko Story ~80's Hits Collection~
DYEAR=2011
DGENRE=JPop
TTITLE0=天国のキッス
TTITLE1=ガラスの林檎
TTITLE2=SWEET MEMORIES
TTITLE3=瞳はダイアモンド
TTITLE4=蒼いフォトグラフ
TTITLE5=Rock'n Rouge
TTITLE6=時間の国のアリス
TTITLE7=ピンクのモーツァルト
TTITLE8=ハートのイアリング
TTITLE9=天使のウィンク
TTITLE10=ボーイの季節
TTITLE11=瑠璃色の地球
TTITLE12=Strawberry Time
TTITLE13=Pearl-White Eve
TTITLE14=Marrakech～マラケッシュ～
TTITLE15=抱いて…
TTITLE16=旅立ちはフリージア
TTITLE17=Precious Heart
EXTD=
EXTT0=
EXTT1=
EXTT2=
EXTT3=
EXTT4=
EXTT5=
EXTT6=
EXTT7=
EXTT8=
EXTT9=
EXTT10=
EXTT11=
EXTT12=
EXTT13=
EXTT14=
EXTT15=
EXTT16=
EXTT17=
PLAYORDER=
